<?xml version="1.0" encoding="utf-8"?>
<!-- Generator: Adobe Illustrator 25.0.1, SVG Export Plug-In . SVG Version: 6.00 Build 0)  -->
<svg version="1.1" id="图层_1" xmlns="http://www.w3.org/2000/svg" xmlns:xlink="http://www.w3.org/1999/xlink" x="0px" y="0px"
	 viewBox="0 0 1000 1000" style="enable-background:new 0 0 1000 1000;" xml:space="preserve">
<style type="text/css">
	.st0{fill:#FFFFFF;}
	.st1{fill:#E74346;}
</style>
<g>
	<rect x="0" class="st0" width="1000" height="1000"/>
	<g>
		<path d="M172.37,441.64h-59.15v-19.18c0-5.93,4.81-10.74,10.74-10.74h128.85c5.93,0,10.74,4.81,10.74,10.74v19.18h-59.42v146.62
			h-31.77V441.64z"/>
		<path d="M298.32,452.32h31.76v135.96h-31.76V452.32z"/>
		<path class="st1" d="M305.78,411.76h16.84c4.12,0,7.46,3.34,7.46,7.46v25.09h-31.76v-25.09
			C298.32,415.1,301.66,411.76,305.78,411.76z"/>
		<path d="M382.93,411.72h31.76v83.47h0.82l76.67-83.47h35.32l-62.43,68.12l72.84,108.42H502.6l-56.96-86.35l-30.94,33.1v53.25
			h-31.76V411.72z"/>
		<path d="M564.48,411.72h31.76v83.47h0.82l76.67-83.47h35.32l-62.43,68.12l72.84,108.42h-35.32l-56.96-86.35l-30.94,33.1v53.25
			h-31.76V411.72z"/>
		<path d="M836.12,537.89h-70.1l-17.25,50.37h-32.31l63.93-168.91c1.74-4.59,6.14-7.63,11.05-7.63h20.37
			c4.91,0,9.31,3.04,11.05,7.63l63.93,168.91H853.1L836.12,537.89z M828.46,516.06l-7.94-23.75c-2.96-9.43-6.21-19.15-9.79-29.11
			c-3.33-9.28-6.74-18.21-10.19-26.78c-3.12,8.84-6.21,17.8-9.29,26.87c-3.31,9.76-6.51,19.44-9.62,29.02l-8.21,23.75H828.46z"/>
	</g>
</g>
</svg>
