<?xml version="1.0" encoding="utf-8"?>
<!-- Generator: Adobe Illustrator 25.0.1, SVG Export Plug-In . SVG Version: 6.00 Build 0)  -->
<svg version="1.1" id="图层_1" xmlns="http://www.w3.org/2000/svg" xmlns:xlink="http://www.w3.org/1999/xlink" x="0px" y="0px"
	 viewBox="0 0 1000 1000" style="enable-background:new 0 0 1000 1000;" xml:space="preserve">
<style type="text/css">
	.st0{fill:#FFFFFF;}
	.st1{fill:#E74346;}
</style>
<g>
	<rect width="1000" height="1000"/>
</g>
<g>
	<path class="st0" d="M172.22,441.61h-59.17v-19.19c0-5.93,4.81-10.75,10.75-10.75H252.7c5.93,0,10.75,4.81,10.75,10.75v19.19H204
		V588.3h-31.78V441.61z"/>
	<path class="st0" d="M298.24,452.3h31.78v136.02h-31.78V452.3z"/>
	<path class="st1" d="M305.7,411.72h16.85c4.12,0,7.46,3.34,7.46,7.46v25.1h-31.78v-25.1C298.24,415.06,301.58,411.72,305.7,411.72z
		"/>
	<path class="st0" d="M382.88,411.68h31.78v83.51h0.82l76.71-83.51h35.34l-62.46,68.15l72.87,108.47H502.6l-56.98-86.39
		l-30.96,33.11v53.27h-31.78V411.68z"/>
	<path class="st0" d="M564.51,411.68h31.78v83.51h0.82l76.71-83.51h35.34l-62.46,68.15l72.87,108.47h-35.34l-56.98-86.39
		l-30.96,33.11v53.27h-31.78V411.68z"/>
	<path class="st0" d="M836.27,537.9h-70.13l-17.26,50.39h-32.33l63.96-168.99c1.74-4.59,6.14-7.63,11.05-7.63h20.38
		c4.91,0,9.31,3.04,11.05,7.63l63.96,168.99h-33.7L836.27,537.9z M828.6,516.07l-7.95-23.76c-2.96-9.43-6.21-19.16-9.79-29.13
		c-3.33-9.28-6.74-18.21-10.19-26.79c-3.12,8.85-6.22,17.81-9.29,26.88c-3.31,9.77-6.51,19.45-9.62,29.04l-8.22,23.76H828.6z"/>
</g>
</svg>
